HIERARCHY
ROOT Hips
{
  OFFSET 43.4891 92.7559 48.1285
  CHANNELS 6 Xposition Yposition Zposition Zrotation Xrotation Yrotation
  JOINT Spine
  {
    OFFSET 0 8 0
    CHANNELS 6 Xposition Yposition Zposition Zrotation Xrotation Yrotation
    JOINT Spine1
    {
      OFFSET 0 8 0
      CHANNELS 6 Xposition Yposition Zposition Zrotation Xrotation Yrotation
      JOINT Spine2
      {
        OFFSET 0 8 0
        CHANNELS 6 Xposition Yposition Zposition Zrotation Xrotation Yrotation
        JOINT Spine3
        {
          OFFSET 0 8 0
          CHANNELS 6 Xposition Yposition Zposition Zrotation Xrotation Yrotation
          JOINT Neck
          {
            OFFSET 0 17 0
            CHANNELS 6 Xposition Yposition Zposition Zrotation Xrotation Yrotation
            JOINT Head
            {
              OFFSET 0 10.8 0
              CHANNELS 6 Xposition Yposition Zposition Zrotation Xrotation Yrotation
              End Site
              {
                OFFSET 0 20.25 0
              }
            }
          }
          JOINT LeftShoulder
          {
            OFFSET 5 17 0
            CHANNELS 6 Xposition Yposition Zposition Zrotation Xrotation Yrotation
            JOINT LeftShoulder2
            {
              OFFSET 6.45 0 0
              CHANNELS 6 Xposition Yposition Zposition Zrotation Xrotation Yrotation
              JOINT LeftArm
              {
                OFFSET 6.45 0 0
                CHANNELS 6 Xposition Yposition Zposition Zrotation Xrotation Yrotation
                JOINT LeftForeArm
                {
                  OFFSET 0 -32.4 -2
                  CHANNELS 6 Xposition Yposition Zposition Zrotation Xrotation Yrotation
                  JOINT LeftHand
                  {
                    OFFSET 0 -25.65 2
                    CHANNELS 6 Xposition Yposition Zposition Zrotation Xrotation Yrotation
                    JOINT LeftHandThumb1
                    {
                      OFFSET -0.5 -1.5 2.65
                      CHANNELS 6 Xposition Yposition Zposition Zrotation Xrotation Yrotation
                      JOINT LeftHandThumb2
                      {
                        OFFSET 0 -3.8 3.7
                        CHANNELS 6 Xposition Yposition Zposition Zrotation Xrotation Yrotation
                        JOINT LeftHandThumb3
                        {
                          OFFSET 0 -3 2.7
                          CHANNELS 6 Xposition Yposition Zposition Zrotation Xrotation Yrotation
                          End Site
                          {
                            OFFSET 0 -2.3 1.8
                          }
                        }
                      }
                    }
                    JOINT LeftHandIndex
                    {
                      OFFSET 0 -1.9 1.6
                      CHANNELS 6 Xposition Yposition Zposition Zrotation Xrotation Yrotation
                      JOINT LeftHandIndex1
                      {
                        OFFSET 0 -8.3 1.9
                        CHANNELS 6 Xposition Yposition Zposition Zrotation Xrotation Yrotation
                        JOINT LeftHandIndex2
                        {
                          OFFSET 0 -4.5 0
                          CHANNELS 6 Xposition Yposition Zposition Zrotation Xrotation Yrotation
                          JOINT LeftHandIndex3
                          {
                            OFFSET 0 -3.4 0
                            CHANNELS 6 Xposition Yposition Zposition Zrotation Xrotation Yrotation
                            End Site
                            {
                              OFFSET 0 -2.6 0
                            }
                          }
                        }
                      }
                    }
                    JOINT LeftHandMiddle
                    {
                      OFFSET -0.25 -2.2 0.4
                      CHANNELS 6 Xposition Yposition Zposition Zrotation Xrotation Yrotation
                      JOINT LeftHandMiddle1
                      {
                        OFFSET 0 -8.3 1
                        CHANNELS 6 Xposition Yposition Zposition Zrotation Xrotation Yrotation
                        JOINT LeftHandMiddle2
                        {
                          OFFSET 0 -4.65 0
                          CHANNELS 6 Xposition Yposition Zposition Zrotation Xrotation Yrotation
                          JOINT LeftHandMiddle3
                          {
                            OFFSET 0 -3.3 0
                            CHANNELS 6 Xposition Yposition Zposition Zrotation Xrotation Yrotation
                            End Site
                            {
                              OFFSET 0 -2.7 0
                            }
                          }
                        }
                      }
                    }
                    JOINT LeftHandRing
                    {
                      OFFSET -0.5 -2.15 -0.8
                      CHANNELS 6 Xposition Yposition Zposition Zrotation Xrotation Yrotation
                      JOINT LeftHandRing1
                      {
                        OFFSET 0 -7.75 -0.2
                        CHANNELS 6 Xposition Yposition Zposition Zrotation Xrotation Yrotation
                        JOINT LeftHandRing2
                        {
                          OFFSET 0 -3.8 0
                          CHANNELS 6 Xposition Yposition Zposition Zrotation Xrotation Yrotation
                          JOINT LeftHandRing3
                          {
                            OFFSET 0 -3.4 0
                            CHANNELS 6 Xposition Yposition Zposition Zrotation Xrotation Yrotation
                            End Site
                            {
                              OFFSET 0 -2.6 0
                            }
                          }
                        }
                      }
                    }
                    JOINT LeftHandPinky
                    {
                      OFFSET -0.75 -1.75 -1.85
                      CHANNELS 6 Xposition Yposition Zposition Zrotation Xrotation Yrotation
                      JOINT LeftHandPinky1
                      {
                        OFFSET 0 -7.15 -1
                        CHANNELS 6 Xposition Yposition Zposition Zrotation Xrotation Yrotation
                        JOINT LeftHandPinky2
                        {
                          OFFSET 0 -3 0
                          CHANNELS 6 Xposition Yposition Zposition Zrotation Xrotation Yrotation
                          JOINT LeftHandPinky3
                          {
                            OFFSET 0 -2.35 0
                            CHANNELS 6 Xposition Yposition Zposition Zrotation Xrotation Yrotation
                            End Site
                            {
                              OFFSET 0 -2.1 0
                            }
                          }
                        }
                      }
                    }
                  }
                }
              }
            }
          }
          JOINT RightShoulder
          {
            OFFSET -5 17 0
            CHANNELS 6 Xposition Yposition Zposition Zrotation Xrotation Yrotation
            JOINT RightShoulder2
            {
              OFFSET -6.45 0 0
              CHANNELS 6 Xposition Yposition Zposition Zrotation Xrotation Yrotation
              JOINT RightArm
              {
                OFFSET -6.45 0 0
                CHANNELS 6 Xposition Yposition Zposition Zrotation Xrotation Yrotation
                JOINT RightForeArm
                {
                  OFFSET 0 -32.4 -2
                  CHANNELS 6 Xposition Yposition Zposition Zrotation Xrotation Yrotation
                  JOINT RightHand
                  {
                    OFFSET 0 -25.65 2
                    CHANNELS 6 Xposition Yposition Zposition Zrotation Xrotation Yrotation
                    JOINT RightHandThumb1
                    {
                      OFFSET 0.5 -1.5 2.65
                      CHANNELS 6 Xposition Yposition Zposition Zrotation Xrotation Yrotation
                      JOINT RightHandThumb2
                      {
                        OFFSET 0 -3.8 3.7
                        CHANNELS 6 Xposition Yposition Zposition Zrotation Xrotation Yrotation
                        JOINT RightHandThumb3
                        {
                          OFFSET 0 -3 2.7
                          CHANNELS 6 Xposition Yposition Zposition Zrotation Xrotation Yrotation
                          End Site
                          {
                            OFFSET 0 -2.3 1.8
                          }
                        }
                      }
                    }
                    JOINT RightHandIndex
                    {
                      OFFSET 0 -1.9 1.6
                      CHANNELS 6 Xposition Yposition Zposition Zrotation Xrotation Yrotation
                      JOINT RightHandIndex1
                      {
                        OFFSET 0 -8.3 1.9
                        CHANNELS 6 Xposition Yposition Zposition Zrotation Xrotation Yrotation
                        JOINT RightHandIndex2
                        {
                          OFFSET 0 -4.5 0
                          CHANNELS 6 Xposition Yposition Zposition Zrotation Xrotation Yrotation
                          JOINT RightHandIndex3
                          {
                            OFFSET 0 -3.4 0
                            CHANNELS 6 Xposition Yposition Zposition Zrotation Xrotation Yrotation
                            End Site
                            {
                              OFFSET 0 -2.6 0
                            }
                          }
                        }
                      }
                    }
                    JOINT RightHandMiddle
                    {
                      OFFSET 0.25 -2.2 0.4
                      CHANNELS 6 Xposition Yposition Zposition Zrotation Xrotation Yrotation
                      JOINT RightHandMiddle1
                      {
                        OFFSET 0 -8.3 1
                        CHANNELS 6 Xposition Yposition Zposition Zrotation Xrotation Yrotation
                        JOINT RightHandMiddle2
                        {
                          OFFSET 0 -4.65 0
                          CHANNELS 6 Xposition Yposition Zposition Zrotation Xrotation Yrotation
                          JOINT RightHandMiddle3
                          {
                            OFFSET 0 -3.3 0
                            CHANNELS 6 Xposition Yposition Zposition Zrotation Xrotation Yrotation
                            End Site
                            {
                              OFFSET 0 -2.7 0
                            }
                          }
                        }
                      }
                    }
                    JOINT RightHandRing
                    {
                      OFFSET 0.5 -2.15 -0.8
                      CHANNELS 6 Xposition Yposition Zposition Zrotation Xrotation Yrotation
                      JOINT RightHandRing1
                      {
                        OFFSET 0 -7.75 -0.2
                        CHANNELS 6 Xposition Yposition Zposition Zrotation Xrotation Yrotation
                        JOINT RightHandRing2
                        {
                          OFFSET 0 -3.8 0
                          CHANNELS 6 Xposition Yposition Zposition Zrotation Xrotation Yrotation
                          JOINT RightHandRing3
                          {
                            OFFSET 0 -3.4 0
                            CHANNELS 6 Xposition Yposition Zposition Zrotation Xrotation Yrotation
                            End Site
                            {
                              OFFSET 0 -2.6 0
                            }
                          }
                        }
                      }
                    }
                    JOINT RightHandPinky
                    {
                      OFFSET 0.75 -1.75 -1.85
                      CHANNELS 6 Xposition Yposition Zposition Zrotation Xrotation Yrotation
                      JOINT RightHandPinky1
                      {
                        OFFSET 0 -7.15 -1
                        CHANNELS 6 Xposition Yposition Zposition Zrotation Xrotation Yrotation
                        JOINT RightHandPinky2
                        {
                          OFFSET 0 -3 0
                          CHANNELS 6 Xposition Yposition Zposition Zrotation Xrotation Yrotation
                          JOINT RightHandPinky3
                          {
                            OFFSET 0 -2.35 0
                            CHANNELS 6 Xposition Yposition Zposition Zrotation Xrotation Yrotation
                            End Site
                            {
                              OFFSET 0 -2.1 0
                            }
                          }
                        }
                      }
                    }
                  }
                }
              }
            }
          }
        }
      }
    }
  }
  JOINT LeftUpLeg
  {
    OFFSET 8 0 0
    CHANNELS 6 Xposition Yposition Zposition Zrotation Xrotation Yrotation
    JOINT LeftLeg
    {
      OFFSET 0 -45 -1
      CHANNELS 6 Xposition Yposition Zposition Zrotation Xrotation Yrotation
      JOINT LeftFoot
      {
        OFFSET 0 -41 -2
        CHANNELS 6 Xposition Yposition Zposition Zrotation Xrotation Yrotation
        JOINT LeftToeBase
        {
          OFFSET 0 -7.5 12.5
          CHANNELS 6 Xposition Yposition Zposition Zrotation Xrotation Yrotation
          JOINT LeftFootToe
          {
            OFFSET 0 0 4
            CHANNELS 6 Xposition Yposition Zposition Zrotation Xrotation Yrotation
            End Site
            {
              OFFSET 0 0 0
            }
          }
        }
      }
    }
  }
  JOINT RightUpLeg
  {
    OFFSET -8 0 0
    CHANNELS 6 Xposition Yposition Zposition Zrotation Xrotation Yrotation
    JOINT RightLeg
    {
      OFFSET 0 -45 -1
      CHANNELS 6 Xposition Yposition Zposition Zrotation Xrotation Yrotation
      JOINT RightFoot
      {
        OFFSET 0 -41 -2
        CHANNELS 6 Xposition Yposition Zposition Zrotation Xrotation Yrotation
        JOINT RightToeBase
        {
          OFFSET 0 -7.5 12.5
          CHANNELS 6 Xposition Yposition Zposition Zrotation Xrotation Yrotation
          JOINT RightFootToe
          {
            OFFSET 0 0 4
            CHANNELS 6 Xposition Yposition Zposition Zrotation Xrotation Yrotation
            End Site
            {
              OFFSET 0 0 0
            }
          }
        }
      }
    }
  }
}
MOTION
Frames:	3
Frame Time:	0.0111111
42.8033 92.8419 46.2993 0.0480655 -2.12563 -87.855 0 8 0 -2.73119 -2.14065 1.61393 -7.10543e-15 8 0 0.332095 1.06682 0.37054 0 8 0 0.166862 0.537009 0.187172 0 8 0 0.166853 0.53698 0.187157 -7.10543e-15 17 0 1.07194 2.00673 0.648355 0 10.8 7.10543e-15 3.84995 9.1411 1.23486 5 17 0 -0.908137 0.861939 -0.644059 6.45 2.84217e-14 -7.10543e-15 0.263731 -1.08748 20.2393 6.45 0 -3.55271e-15 0.691228 -6.75632 -28.7429 0 -32.4 -2 -6.74339 -6.27335 -6.62154 0 -25.65 2 2.80653 -1.418 6.06017 -0.5 -1.5 2.65 -9.33135 -5.02239 -23.6123 7.10543e-15 -3.8 3.7 -0.129437 2.00481 -0.0408015 -7.10543e-15 -3 2.7 -0.0087516 46.7622 0.0120129 0 -1.9 1.6 3.97569e-16 -2.06239e-15 -1.59028e-15 0 -8.3 1.9 -7.99472 -0.965633 -0.0431604 7.10543e-15 -4.5 3.55271e-15 -6.68472 -2.18663e-15 3.97569e-15 -7.10543e-15 -3.4 -3.55271e-15 -6.1235 -2.38542e-15 7.95139e-16 -0.25 -2.2 0.4 3.97569e-16 -2.06239e-15 -1.59028e-15 0 -8.3 1 -9.20169 0.729 0.148349 0 -4.65 -7.10543e-15 -7.20554 -1.19271e-15 7.95139e-15 0 -3.3 -3.55271e-15 -6.55794 -3.18055e-15 2.38542e-15 -0.5 -2.15 -0.8 3.97569e-16 -2.06239e-15 -1.59028e-15 0 -7.75 -0.2 -11.4674 3.69808 0.590866 -7.10543e-15 -3.8 1.06581e-14 -1.54234 9.93923e-16 3.18055e-15 0 -3.4 0 -1.51044 1.98785e-15 1.59028e-15 -0.75 -1.75 -1.85 3.97569e-16 -2.06239e-15 -1.59028e-15 7.10543e-15 -7.15 -1 -12.7236 5.26186 0.879213 0 -3 0 -2.98651 2.5842e-15 2.38542e-15 7.10543e-15 -2.35 0 -2.86893 3.97569e-16 2.38542e-15 -5 17 -7.10543e-15 1.8355 -1.94975 -10.3427 -6.45 -2.84217e-14 0 -0.368278 -0.528252 -17.432 -6.45 -2.84217e-14 -7.10543e-15 -2.11417 -5.81394 30.5636 0 -32.4 -2 1.89685 -8.19981 11.3609 0 -25.65 2 -0.277668 -2.03048 10.338 0.5 -1.5 2.65 0.0274894 -0.337946 0.98545 0 -3.8 3.7 -2.73512e-15 9.78453 3.2275e-15 0 -3 2.7 1.62545e-15 0.633521 -3.18075e-15 3.55271e-15 -1.9 1.6 -8.94531e-16 3.72721e-15 3.18055e-15 -3.55271e-15 -8.3 1.9 8.52236 0.595754 -0.0711395 -7.10543e-15 -4.5 5.32907e-15 5.44899 -1.59028e-15 6.36111e-15 7.10543e-15 -3.4 -3.55271e-15 5.0699 -3.18055e-15 -0 0.25 -2.2 0.4 -8.94531e-16 3.72721e-15 3.18055e-15 7.10543e-15 -8.3 1 6.37425 0.155201 -0.0256029 0 -4.65 3.55271e-15 18.1748 -1.59028e-15 9.54166e-15 0 -3.3 0 14.6831 6.36111e-15 3.18055e-15 0.5 -2.15 -0.8 -8.94531e-16 3.72721e-15 3.18055e-15 0 -7.75 -0.2 2.15462 -0.741695 -3.18082e-15 0 -3.8 1.77636e-15 9.55728 -3.18055e-15 -0 0 -3.4 3.55271e-15 8.45634 -1.59028e-15 -9.54166e-15 0.75 -1.75 -1.85 -8.94531e-16 3.72721e-15 3.18055e-15 0 -7.15 -1 0.00870501 -1.21715 -0 -3.55271e-15 -3 3.55271e-15 -9.93923e-16 -3.67752e-15 3.18055e-15 0 -2.35 -3.55271e-15 -3.97569e-16 6.06293e-15 -0 8 1.42109e-14 0 0.914782 0.23831 0.308363 0 -45 -1 0.00256794 3.83512 -0.0332757 0 -41 -2 -3.04959 -4.02114 -5.45991 7.10543e-15 -7.5 12.5 1.21329e-20 6.36975e-20 3.97569e-16 0 0 4 2.69444 0.263803 12.8691 -8 0 0 -11.2839 -5.70347 -19.4207 0 -45 -1 -0.0572669 8.89997 1.52298 3.55271e-15 -41 -2 6.72137 -0.77521 -3.60715 -1.77636e-15 -7.5 12.5 1.2424e-17 1.2424e-17 -0 -1.77636e-15 -2.77556e-17 4 -4.51902 -1.64537 23.6299 
42.8039 92.8419 46.2997 0.048215 -2.1256 -87.851 0 8 0 -2.73206 -2.14071 1.61208 -7.10543e-15 8 7.10543e-15 0.332061 1.06674 0.369606 7.10543e-15 8 7.10543e-15 0.166831 0.536941 0.187091 0 8 7.10543e-15 0.166821 0.536912 0.187076 0 17 0 1.07179 2.00659 0.64861 0 10.8 7.10543e-15 3.84958 9.14163 1.23513 5 17 0 -0.908098 0.86189 -0.64452 6.45 2.84217e-14 7.10543e-15 0.263805 -1.08778 20.2396 6.45 2.84217e-14 -7.10543e-15 0.692946 -6.76156 -28.7436 -1.42109e-14 -32.4 -2 -6.74986 -6.27267 -6.62855 -7.10543e-15 -25.65 2 2.81115 -1.41565 6.06295 -0.5 -1.5 2.65 -9.33485 -5.02421 -23.6174 0 -3.8 3.7 -0.129458 2.00457 -0.0408015 0 -3 2.7 -0.00875164 46.7623 0.0120129 -7.10543e-15 -1.9 1.6 -1.27589e-32 -9.19379e-16 -7.95139e-16 -7.10543e-15 -8.3 1.9 -7.99808 -0.962216 -0.0431623 -7.10543e-15 -4.5 -7.10543e-15 -6.68167 5.1684e-15 -1.59028e-15 0 -3.4 0 -6.12093 1.19271e-15 -7.15625e-15 -0.25 -2.2 0.4 -1.27589e-32 -9.19379e-16 -7.95139e-16 0 -8.3 1 -9.20436 0.732619 0.148408 7.10543e-15 -4.65 -1.06581e-14 -7.20116 9.93923e-16 -3.97569e-15 0 -3.3 7.10543e-15 -6.55468 -1.59028e-15 -2.38542e-15 -0.5 -2.15 -0.8 -1.27589e-32 -9.19379e-16 -7.95139e-16 0 -7.75 -0.2 -11.4676 3.70081 0.591037 0 -3.8 0 -1.54277 7.95139e-16 -7.95139e-16 0 -3.4 -7.10543e-15 -1.51089 0 -7.95139e-16 -0.75 -1.75 -1.85 -1.27589e-32 -9.19379e-16 -7.95139e-16 -7.10543e-15 -7.15 -1 -12.7239 5.26437 0.879547 7.10543e-15 -3 1.42109e-14 -2.98616 2.78299e-15 -0 0 -2.35 7.10543e-15 -2.86875 0 7.95139e-16 -5 17 7.10543e-15 1.83503 -1.94966 -10.3437 -6.45 2.84217e-14 -7.10543e-15 -0.370303 -0.529936 -17.4368 -6.45 -2.84217e-14 0 -2.11334 -5.81721 30.5682 -3.55271e-15 -32.4 -2 1.89772 -8.19631 11.3734 3.55271e-15 -25.65 2 -0.273329 -2.02971 10.3382 0.5 -1.5 2.65 0.0271233 -0.337636 0.982988 0 -3.8 3.7 -2.18663e-15 9.78377 -0 -3.55271e-15 -3 2.7 7.95139e-16 0.633207 -0 0 -1.9 1.6 6.95746e-16 2.23633e-15 -0 0 -8.3 1.9 8.5164 0.594089 -0.071164 0 -4.5 -3.55271e-15 5.45313 -2.38542e-15 -0 0 -3.4 5.32907e-15 5.07308 -1.59028e-15 -0 0.25 -2.2 0.4 6.95746e-16 2.23633e-15 -0 0 -8.3 1 6.3698 0.1543 -0.0256206 0 -4.65 -1.77636e-15 18.1748 0 -0 -7.10543e-15 -3.3 3.55271e-15 14.683 3.18055e-15 3.18055e-15 0.5 -2.15 -0.8 6.95746e-16 2.23633e-15 -0 -3.55271e-15 -7.75 -0.2 2.15309 -0.741539 3.18082e-15 7.10543e-15 -3.8 1.77636e-15 9.55728 -7.95139e-15 -0 0 -3.4 3.55271e-15 8.4564 0 -6.36111e-15 0.75 -1.75 -1.85 6.95746e-16 2.23633e-15 -0 0 -7.15 -1 0.00870501 -1.21674 -0 0 -3 3.55271e-15 -5.96354e-16 3.47873e-15 -3.18055e-15 3.55271e-15 -2.35 -1.77636e-15 -2.78299e-15 -7.95139e-16 3.18055e-15 8 -1.42109e-14 0 0.914804 0.238111 0.328888 -7.10543e-15 -45 -1 0.0025854 3.83512 -0.0335368 0 -41 -2 -3.05096 -4.01956 -5.48396 -7.10543e-15 -7.5 12.5 -0 -1.21329e-20 -0 0 0 4 2.6944 0.263816 12.8691 -8 -1.42109e-14 -7.10543e-15 -11.2845 -5.70294 -19.4244 -3.55271e-15 -45 -1 -0.0572259 8.89786 1.52319 -1.77636e-15 -41 -2 6.72147 -0.775134 -3.60705 3.55271e-15 -7.5 12.5 1.2424e-17 -1.2424e-17 6.36111e-15 0 0 4 -4.51896 -1.64523 23.6299 
42.8046 92.8419 46.3001 0.0483471 -2.12615 -87.8475 7.10543e-15 8 0 -2.73293 -2.14077 1.61031 7.10543e-15 8 0 0.332026 1.06666 0.368674 0 8 0 0.166799 0.536873 0.18701 0 8 1.42109e-14 0.16679 0.536843 0.186996 0 17 0 1.07164 2.00647 0.648861 0 10.8 7.10543e-15 3.84922 9.14216 1.23538 5 17 7.10543e-15 -0.908062 0.861841 -0.644966 6.45 0 0 0.263878 -1.08807 20.24 6.45 -2.84217e-14 1.06581e-14 0.694539 -6.7653 -28.7442 0 -32.4 -2 -6.75509 -6.27206 -6.63537 0 -25.65 2 2.8113 -1.41327 6.06367 -0.5 -1.5 2.65 -9.33758 -5.0259 -23.6228 -1.42109e-14 -3.8 3.7 -0.129478 2.00432 -0.0408015 0 -3 2.7 -0.00875167 46.7624 0.012013 0 -1.9 1.6 3.00008e-32 2.16178e-15 -7.95139e-16 0 -8.3 1.9 -8.0013 -0.958081 -0.0431642 0 -4.5 -3.55271e-15 -6.67831 -1.98785e-16 -7.95139e-16 0 -3.4 -3.55271e-15 -6.11811 1.19271e-15 2.38542e-15 -0.25 -2.2 0.4 3.00008e-32 2.16178e-15 -7.95139e-16 -7.10543e-15 -8.3 1 -9.2046 0.735858 0.148469 0 -4.65 0 -7.19533 -5.76476e-15 -4.77083e-15 0 -3.3 -3.55271e-15 -6.54985 0 -7.95139e-16 -0.5 -2.15 -0.8 3.00008e-32 2.16178e-15 -7.95139e-16 -7.10543e-15 -7.75 -0.2 -11.4678 3.70323 0.591218 0 -3.8 -3.55271e-15 -1.54313 -5.96354e-16 -1.59028e-15 0 -3.4 0 -1.51127 -5.96354e-16 -1.59028e-15 -0.75 -1.75 -1.85 3.00008e-32 2.16178e-15 -7.95139e-16 0 -7.15 -1 -12.7242 5.26626 0.879879 7.10543e-15 -3 0 -2.98582 2.5842e-15 7.95139e-16 0 -2.35 0 -2.86858 3.18055e-15 2.38542e-15 -5 17 0 1.83455 -1.94958 -10.3446 -6.45 2.84217e-14 7.10543e-15 -0.372179 -0.531387 -17.4414 -6.45 2.84217e-14 0 -2.11251 -5.82071 30.5722 3.55271e-15 -32.4 -2 1.8984 -8.1927 11.3853 -3.55271e-15 -25.65 2 -0.268566 -2.02882 10.3387 0.5 -1.5 2.65 0.0267517 -0.337384 0.979528 3.55271e-15 -3.8 3.7 3.23201e-15 9.78327 -3.22749e-15 0 -3 2.7 2.02298e-15 0.632862 -3.18075e-15 0 -1.9 1.6 -3.97569e-16 -3.8763e-15 -3.18055e-15 0 -8.3 1.9 8.508 0.59257 -0.0711886 0 -4.5 0 5.45909 0 -3.18055e-15 7.10543e-15 -3.4 -1.77636e-15 5.07824 -3.18055e-15 -0 0.25 -2.2 0.4 -3.97569e-16 -3.8763e-15 -3.18055e-15 3.55271e-15 -8.3 1 6.36354 0.153153 -0.0256383 0 -4.65 -3.55271e-15 18.1748 0 6.36111e-15 0 -3.3 0 14.6827 0 3.18055e-15 0.5 -2.15 -0.8 -3.97569e-16 -3.8763e-15 -3.18055e-15 0 -7.75 -0.2 2.15143 -0.741374 3.18082e-15 0 -3.8 -1.77636e-15 9.55731 7.95139e-16 -0 0 -3.4 0 8.45646 0 -3.18055e-15 0.75 -1.75 -1.85 -3.97569e-16 -3.8763e-15 -3.18055e-15 0 -7.15 -1 0.00870501 -1.21634 -3.18127e-15 0 -3 -3.55271e-15 1.59028e-15 3.8763e-15 3.18055e-15 7.10543e-15 -2.35 3.55271e-15 -5.96354e-16 4.07509e-15 -0 8 -1.42109e-14 -7.10543e-15 0.914855 0.237912 0.342718 -7.10543e-15 -45 -1 0.00260312 3.83512 -0.0338017 -7.10543e-15 -41 -2 -3.05187 -4.01878 -5.50061 7.10543e-15 -7.5 12.5 1.94126e-19 1.94126e-19 -0 -7.10543e-15 1.73472e-18 4 2.69436 0.263829 12.8691 -8 -1.42109e-14 0 -11.2852 -5.7024 -19.4281 3.55271e-15 -45 -1 -0.0572169 8.89694 1.5234 -1.77636e-15 -41 -2 6.72157 -0.77506 -3.60695 0 -7.5 12.5 2.48481e-17 -4.96962e-17 -3.18055e-15 1.77636e-15 0 4 -4.5189 -1.64508 23.6299 
